HIERARCHY
ROOT RootJoint
{
    OFFSET   0.000000   0.000000   0.000000
    CHANNELS 6 Xposition Yposition Zposition Xrotation Yrotation Zrotation
    JOINT pelvis_lowerback
    {
        OFFSET   0.000000   0.093605   0.000000
        CHANNELS 3 Xrotation Yrotation Zrotation
        JOINT lowerback_torso
        {
            OFFSET   0.000000   0.100000   0.000000
            CHANNELS 3 Xrotation Yrotation Zrotation
            JOINT torso_head
            {
                OFFSET   0.000000   0.282350   0.000000
                CHANNELS 3 Xrotation Yrotation Zrotation
                End Site
                {
                    OFFSET   0.000000   0.192650   0.000000
                }
            }
            JOINT rTorso_Clavicle
            {
                OFFSET  -0.001000   0.157500   0.000000
                CHANNELS 3 Xrotation Yrotation Zrotation
                JOINT rShoulder
                {
                    OFFSET  -0.117647   0.000000   0.000000
                    CHANNELS 3 Xrotation Yrotation Zrotation
                    JOINT rElbow
                    {
                        OFFSET  -0.245000   0.000000   0.000000
                        CHANNELS 3 Xrotation Yrotation Zrotation
                        JOINT rWrist
                        {
                            OFFSET  -0.240000   0.000000   0.000000
                            CHANNELS 3 Xrotation Yrotation Zrotation
                            End Site
                            {
                                OFFSET  -0.116353  -0.002500   0.000000
                            }
                        }
                    }
                }
            }
            JOINT lTorso_Clavicle
            {
                OFFSET   0.001000   0.157500   0.000000
                CHANNELS 3 Xrotation Yrotation Zrotation
                JOINT lShoulder
                {
                    OFFSET   0.117647   0.000000   0.000000
                    CHANNELS 3 Xrotation Yrotation Zrotation
                    JOINT lElbow
                    {
                        OFFSET   0.245000   0.000000   0.000000
                        CHANNELS 3 Xrotation Yrotation Zrotation
                        JOINT lWrist
                        {
                            OFFSET   0.240000   0.000000   0.000000
                            CHANNELS 3 Xrotation Yrotation Zrotation
                            End Site
                            {
                                OFFSET   0.116353  -0.002500   0.000000
                            }
                        }
                    }
                }
            }
        }
    }
    JOINT rHip
    {
        OFFSET  -0.100000  -0.051395   0.000000
        CHANNELS 3 Xrotation Yrotation Zrotation
        JOINT rKnee
        {
            OFFSET   0.000000  -0.410000   0.000000
            CHANNELS 3 Xrotation Yrotation Zrotation
            JOINT rAnkle
            {
                OFFSET   0.000000  -0.390000   0.000000
                CHANNELS 3 Xrotation Yrotation Zrotation
                JOINT rToeJoint
                {
                    OFFSET   0.000000  -0.050000   0.130000
                    CHANNELS 3 Xrotation Yrotation Zrotation
                    End Site
                    {
                        OFFSET  -0.010000   0.002000   0.060000
                    }
                }
            }
        }
    }
    JOINT lHip
    {
        OFFSET   0.100000  -0.051395   0.000000
        CHANNELS 3 Xrotation Yrotation Zrotation
        JOINT lKnee
        {
            OFFSET   0.000000  -0.410000   0.000000
            CHANNELS 3 Xrotation Yrotation Zrotation
            JOINT lAnkle
            {
                OFFSET   0.000000  -0.390000   0.000000
                CHANNELS 3 Xrotation Yrotation Zrotation
                JOINT lToeJoint
                {
                    OFFSET   0.000000  -0.050000   0.130000
                    CHANNELS 3 Xrotation Yrotation Zrotation
                    End Site
                    {
                        OFFSET   0.010000   0.002000   0.060000
                    }
                }
            }
        }
    }
}
MOTION
Frames: 14
Frame Time:   0.008333
 -2.376987   0.918401   4.003211  -8.131984   7.718399   0.932657   5.799836   5.866966   2.742679   6.303708   4.515580   3.194904   3.015462  -4.627499   5.334747  -8.997083   5.926041  -6.504485 -38.375831  20.048322  25.045547 -179.983798  89.603792 179.984145   0.430503   9.094871 -12.459701   9.402011   9.545445   2.930811  37.279750  -5.666086 -47.421683  -0.006477 -41.741219  -0.005047   8.745891  -6.715758  -5.691866  10.304396   0.725464  -1.148982   4.728653   0.000000  -0.000122  -6.501203  -5.968907   2.467433  -0.589827  -0.000013   0.000000   9.631261  -0.493497   2.443432   5.980319  -0.000003   0.000151  -7.778493  -3.627087   1.051389  -0.061533  -0.000005   0.000006
 -2.377052   0.918400   4.003146  -8.147418   7.701653   0.942414   5.790914   5.802997   2.740523   6.272445   4.408633   3.118697   2.943700  -4.556892   5.204460  -8.834808   5.788698  -5.964001 -37.305439  19.653859  24.892709 179.960208  89.520852 -179.959621   0.618765   9.124832 -12.761985   9.259810   9.254236   2.587347  35.977042  -5.355144 -47.146444  -0.009794 -42.217797  -0.008608   8.729697  -6.355211  -5.368696  10.270526   0.666666  -1.162028   4.816991  -0.000003  -0.000155  -6.548953  -5.894346   2.513160  -0.579814  -0.000014   0.000000   9.664765  -0.531387   2.428949   5.945740  -0.000002   0.000137  -7.770271  -3.573326   1.114866  -0.047937  -0.000011   0.000005
 -2.377146   0.918400   4.003026  -8.173258   7.691952   0.955073   5.787556   5.736923   2.729195   6.249224   4.288669   3.044409   2.866628  -4.484157   5.066652  -8.594705   5.651452  -5.369897 -36.236350  19.245807  24.801023 179.935398  89.456818 -179.934617   0.790105   9.111632 -12.878397   9.052614   8.924898   2.231763  34.685969  -5.121082 -46.878817  -0.012288 -42.700007  -0.011253   8.689379  -6.150432  -4.904120  10.240661   0.608152  -1.173449   4.912859  -0.000006  -0.000180  -6.597635  -5.827243   2.554347  -0.570415  -0.000015   0.000000   9.701467  -0.570030   2.415979   5.915794  -0.000001   0.000122  -7.759949  -3.526439   1.175321  -0.034527  -0.000015   0.000004
 -2.377243   0.918400   4.002868  -8.203624   7.672050   0.965576   5.791709   5.659283   2.712869   6.235004   4.156737   2.975287   2.790212  -4.415233   4.934114  -8.325243   5.527859  -4.763491 -35.207626  18.847540  24.751204 179.926706  89.406472 -179.925816   0.940819   9.045848 -12.884212   8.819247   8.578860   1.868071  33.441101  -4.942768 -46.629684  -0.013841 -43.168917  -0.012817   8.637974  -6.063355  -4.408209  10.211646   0.559265  -1.183873   5.008487  -0.000009  -0.000201  -6.641869  -5.759229   2.593095  -0.561598  -0.000014   0.000000   9.739228  -0.600554   2.404285   5.890764  -0.000000   0.000108  -7.750082  -3.477419   1.231380  -0.022086  -0.000018   0.000003
 -2.377330   0.918401   4.002688  -8.234077   7.638132   0.972411   5.802165   5.569566   2.693831   6.227130   4.015395   2.910951   2.717070  -4.350821   4.809494  -8.049493   5.415849  -4.168781 -34.232116  18.466892  24.727263 179.925818  89.364580 -179.924889   1.076782   8.949586 -12.832059   8.577468   8.230690   1.507022  32.255733  -4.803655 -46.399059  -0.014613 -43.618069  -0.013493   8.581648  -6.050321  -3.919976  10.181599   0.521604  -1.193854   5.100058  -0.000011  -0.000218  -6.680261  -5.687985   2.630267  -0.553349  -0.000014   0.000000   9.776082  -0.621279   2.393368   5.869314   0.000000   0.000096  -7.741422  -3.423887   1.283260  -0.010770  -0.000019   0.000003
 -2.377405   0.918386   4.002517  -8.265973   7.591605   0.984298   5.818978   5.468871   2.665699   6.224908   3.866288   2.848116   2.648429  -4.290825   4.692773  -7.779364   5.312498  -3.598371 -33.314285  18.106644  24.719214 179.928746  89.328015 -179.927823   1.202457   8.839033 -12.751434   8.337197   7.888697   1.159556  31.135662  -4.691566 -46.183238  -0.014796 -44.044283  -0.013512   8.524002  -6.081744  -3.449364  10.145290   0.494959  -1.213311   5.196835  -0.000011  -0.000235  -6.661100  -5.614925   2.684617  -0.857994   0.000104   0.000004   9.814603  -0.633674   2.374762   5.852281   0.000001   0.000086  -7.735904  -3.367195   1.329698  -0.000944  -0.000019   0.000002
 -2.377462   0.918388   4.002353  -8.292387   7.534494   0.983097   5.835514   5.359771   2.645964   6.223680   3.712580   2.792267   2.584345  -4.234974   4.583705  -7.520590   5.214744  -3.057215 -32.454158  17.766748  24.720461 179.933628  89.295128 -179.932740   1.321153   8.725689 -12.657421   8.103689   7.558773   0.825653  30.081827  -4.599759 -45.982962  -0.014541 -44.446309  -0.013076   8.467207  -6.138140  -3.000153  10.114554   0.476165  -1.221132   5.279974  -0.000012  -0.000243  -6.703797  -5.538648   2.713963  -0.788634   0.000067   0.000003   9.850012  -0.637604   2.366155   5.835285   0.000001   0.000077  -7.731712  -3.306310   1.373745   0.008209  -0.000018   0.000002
 -2.377594   0.918396   4.002128  -8.321255   7.525602   1.000773   5.852173   5.304886   2.599683   6.171328   3.597338   2.694280   2.501138  -4.125331   4.414920  -7.247765   5.059073  -2.540615 -30.938187  17.298801  24.757587 -179.805081  89.535345 179.804264   1.528114   8.933771 -12.944278   7.939730   7.200660   0.501889  28.721559  -4.491877 -45.723576  -0.019311 -45.346709  -0.018323   8.372371  -5.702084  -2.640952  10.067766   0.399835  -1.237717   5.402927  -0.000016  -0.000284  -6.771598  -5.455107   2.768028  -0.725625   0.000025   0.000003   9.890221  -0.705923   2.345935   5.791537   0.000002   0.000091  -7.712246  -3.231499   1.471173   0.028126  -0.000030   0.000001
 -2.377775   0.918296   4.001870  -8.358596   7.554715   0.965642   5.865977   5.236697   2.584164   6.123921   3.463229   2.616700   2.406212  -4.016228   4.236354  -6.885125   4.907497  -1.970532 -29.433024  16.815536  24.849826 -178.817683  89.809796 178.814998   1.675218   8.908061 -12.951494   7.713653   6.806546   0.177476  27.379858  -4.454067 -45.479519  -0.022749 -46.237618  -0.022128   8.260528  -5.511545  -2.175779  10.024606   0.312838  -1.187687   5.537237  -0.000027  -0.000304  -6.846312  -5.388764   2.818700  -0.671743  -0.000006   0.000002   9.933203  -0.751193   2.381248   5.772885   0.000000   0.000076  -7.590153  -3.141395   1.599253  -0.861678   0.000849  -0.000493
 -2.377932   0.918321   4.001554  -8.402783   7.540455   0.994701   5.898299   5.167881   2.498505   6.099924   3.322216   2.522179   2.311061  -3.912701   4.063783  -6.489712   4.778441  -1.361541 -27.988331  16.350197  24.990221  -4.073622  89.919064   4.069342   1.790954   8.775018 -12.808284   7.459961   6.393059  -0.158084  26.087364  -4.459262 -45.251487  -0.024370 -47.085224  -0.023840   8.145501  -5.441454  -1.673894   9.984006   0.248504  -1.213620   5.665616  -0.000029  -0.000328  -6.906099  -5.313557   2.866818  -0.628136  -0.000023   0.000002   9.982130  -0.808461   2.352802   5.734977   0.000001   0.000083  -7.594891  -3.073350   1.681728  -0.595120   0.000493  -0.000394
 -2.378070   0.918346   4.001193  -8.441934   7.509564   1.016864   5.937702   5.083529   2.419155   6.085568   3.170188   2.429709   2.220130  -3.816015   3.897956  -6.093946   4.664499  -0.763950 -26.621614  15.912610  25.150097  -1.176899  89.658888   1.171475   1.888763   8.594071 -12.590378   7.200104   5.980046  -0.490292  24.859531  -4.492631 -45.046935  -0.024748 -47.889181  -0.024078   8.031077  -5.454289  -1.190107   9.937332   0.197876  -1.237722   5.785026  -0.000030  -0.000344  -6.953764  -5.234465   2.913135  -0.443782  -0.000088   0.000002  10.024788  -0.853282   2.326725   5.697228   0.000002   0.000090  -7.591272  -3.000651   1.757260  -0.444331   0.000300  -0.000315
 -2.378185   0.918371   4.000812  -8.477131   7.462947   1.032698   5.983867   4.985849   2.343135   6.079005   3.009503   2.344301   2.135071  -3.725809   3.742304  -5.711317   4.560293  -0.189330 -25.337469  15.503723  25.317740  -0.756210  89.413053   0.750077   1.978053   8.399482 -12.341525   6.943507   5.576792  -0.811986  23.701221  -4.541780 -44.860851  -0.024235 -48.646573  -0.023270   7.919696  -5.513264  -0.730142   9.887389   0.160018  -1.260412   5.895946  -0.000029  -0.000356  -6.991941  -5.151574   2.958854  -0.442748  -0.000071   0.000001  10.062879  -0.886161   2.302385   5.662050   0.000002   0.000096  -7.583895  -2.923676   1.828872  -0.321662   0.000169  -0.000251
 -2.378273   0.918394   4.000429  -8.508236   7.402586   1.042962   6.034431   4.877278   2.270818   6.078325   2.842645   2.266263   2.056320  -3.641695   3.596755  -5.347507   4.462336   0.355938 -24.134982  15.122393  25.486424  -0.565459  89.182513   0.558979   2.062607   8.205657 -12.084199   6.695651   5.189080  -1.117564  22.613436  -4.599016 -44.689857  -0.023126 -49.357480  -0.021785   7.812541  -5.596565  -0.293747   9.835342   0.133532  -1.282109   5.998720  -0.000027  -0.000362  -7.022371  -5.065596   3.003455  -0.440599  -0.000057   0.000001  10.097188  -0.908359   2.279267   5.629523   0.000002   0.000099  -7.574628  -2.843161   1.896481  -0.221778   0.000083  -0.000200
 -2.378415   0.918410   4.000065  -8.584780   7.404326   1.081001   6.114832   4.802059   2.168867   6.045197   2.722605   2.137216   1.922489  -3.521127   3.381196  -4.953315   4.325162   0.775197 -22.273594  14.684516  25.721685  -0.638194  88.233935   0.625734   2.297128   8.583618 -12.281504   6.529501   4.773468  -1.381176  21.350268  -4.749253 -44.446109  -0.026780 -50.692560  -0.025180   7.646144  -5.152531   0.079406   9.824473   0.019752  -1.314182   6.130978  -0.000030  -0.000414  -7.081414  -4.957964   3.057508  -0.434647  -0.000048   0.000001  10.194710  -1.014749   2.242298   5.551244   0.000001   0.000147  -7.546954  -2.743571   2.028097  -0.124806  -0.000035  -0.000159
